<svg id="Capa_1" enable-background="new 0 0 512 512" height="512" viewBox="0 0 512 512" width="512" xmlns="http://www.w3.org/2000/svg"><g><path d="m255.958 103.516c-77.751-63.737-195.958-8.426-195.958 92.829 0 101.364 118.271 156.509 195.955 92.831 77.532 63.655 196.045 8.621 196.045-92.831 0-101.569-118.545-156.421-196.042-92.829zm-75.958 182.829c-49.626 0-90-40.374-90-90s40.374-90 90-90 90 40.374 90 90-40.374 90-90 90zm96.684-19.008c6.049-8.216 11.081-17.224 14.901-26.843 5.47 6.031 14.704 6.607 20.869 1.312 11.661-10.016 27.402-10.032 39.079-.012 6.286 5.394 15.756 4.671 21.152-1.616 5.395-6.287 4.671-15.757-1.616-21.152-22.018-18.893-51.424-18.783-72.468-4.347 1.666-10.821 1.882-22.144.446-33.49 7.314-1 12.954-7.256 12.954-14.844 0-10.491-10.516-17.764-20.354-13.999-3.826-9.675-8.881-18.733-14.961-26.992 58.495-45.674 145.314-4.137 145.314 70.991 0 75.223-86.932 116.606-145.316 70.992z"/><circle cx="366" cy="166.345" r="15"/><circle cx="145" cy="166.345" r="15"/><circle cx="214" cy="166.345" r="15"/><path d="m199.532 207.977c-11.664 10.009-27.406 10.013-39.079-.012-6.283-5.396-15.754-4.678-21.152 1.606-5.397 6.284-4.678 15.754 1.606 21.152 22.89 19.658 55.237 19.691 78.161.021 6.287-5.395 7.01-14.865 1.616-21.152-5.395-6.285-14.866-7.009-21.152-1.615z"/><path d="m467 15.499h-422c-24.813 0-45 20.187-45 45v270c0 24.813 20.187 45 45 45h258v4.411c0 37.658-22.093 72.188-56.286 87.97-6.891 3.181-10.321 11.007-7.988 18.229 2.321 7.185 9.652 11.57 17.142 10.113 8.797-3.872 125.179-6.214 159.283-120.724h51.849c24.813 0 45-20.187 45-45v-270c0-24.812-20.187-44.999-45-44.999zm15 315c0 8.271-6.729 15-15 15h-63.459c-7.047 0-13.145 4.906-14.652 11.79-9.413 42.97-39.017 77.917-78.445 94.717 28.898-41.847 21.377-81.313 22.556-91.507 0-8.284-6.716-15-15-15h-273c-8.271 0-15-6.729-15-15v-270c0-8.271 6.729-15 15-15h422c8.271 0 15 6.729 15 15z"/></g></svg>